# Blender v2.80 (sub 75) OBJ File: ''
# www.blender.org
g cube_sphere
v -1.075224 0.537612 -0.537612
v -0.877917 0.877917 -0.438958
v -0.760298 0.760298 -0.760298
v -0.877917 0.438958 -0.877917
v 0.537612 0.537612 -1.075224
v 0.438958 0.877917 -0.877917
v 0.760298 0.760298 -0.760298
v 0.877917 0.438958 -0.877917
v 1.075224 0.537612 0.537612
v 0.877917 0.877917 0.438958
v 0.760298 0.760298 0.760298
v 0.877917 0.438958 0.877917
v -0.537612 0.537612 1.075224
v -0.438958 0.877917 0.877917
v -0.760298 0.760298 0.760298
v -0.877917 0.438958 0.877917
v 0.537612 -1.075224 0.537612
v 0.877917 -0.877917 0.438958
v 0.760298 -0.760298 0.760298
v 0.438958 -0.877917 0.877917
v -0.537612 1.075224 0.537612
v -0.877917 0.877917 0.438958
v -0.438958 0.877917 -0.877917
v -0.537612 1.075224 -0.537612
v -0.931171 0.931171 0.000000
v -0.588924 1.177849 0.000000
v 0.438958 -0.877917 -0.877917
v 0.760298 -0.760298 -0.760298
v 0.877917 -0.877917 -0.438958
v 0.537612 -1.075224 -0.537612
v 0.931171 -0.931171 -0.000000
v 0.588924 -1.177849 -0.000000
v 0.877917 0.877917 -0.438958
v 1.075224 0.537612 -0.537612
v 0.931171 0.931171 0.000000
v 1.177849 0.588924 0.000000
v -1.075224 0.537612 0.537612
v -1.177849 0.588924 0.000000
v -0.931171 -0.931171 -0.000000
v -1.177849 -0.588924 -0.000000
v -1.075224 -0.537612 -0.537612
v -0.877917 -0.877917 -0.438958
v -1.316875 0.000000 0.000000
v -1.177849 0.000000 -0.588924
v -0.877917 -0.877917 0.438958
v -1.075224 -0.537612 0.537612
v -1.177849 -0.000000 0.588924
v -0.760298 -0.760298 0.760298
v -0.877917 -0.438958 0.877917
v -0.931171 -0.000000 0.931171
v 1.177849 -0.588924 -0.000000
v 1.075224 -0.537612 0.537612
v 1.316875 0.000000 0.000000
v 1.177849 -0.000000 0.588924
v 1.075224 -0.537612 -0.537612
v 1.177849 0.000000 -0.588924
v 0.877917 -0.438958 -0.877917
v 0.931171 0.000000 -0.931171
v -0.438958 -0.877917 0.877917
v -0.537612 -0.537612 1.075224
v -0.588924 -0.000000 1.177849
v 0.877917 -0.438958 0.877917
v 0.931171 -0.000000 0.931171
v 0.537612 -0.537612 -1.075224
v 0.588924 0.000000 -1.177849
v -0.877917 -0.438958 -0.877917
v -0.760298 -0.760298 -0.760298
v -0.931171 0.000000 -0.931171
v -0.537612 0.537612 -1.075224
v -0.588924 0.000000 -1.177849
v 0.000000 0.588924 -1.177849
v 0.000000 0.000000 -1.316875
v -0.537612 -0.537612 -1.075224
v 0.000000 -0.588924 -1.177849
v -0.438958 -0.877917 -0.877917
v 0.000000 -0.931171 -0.931171
v 0.537612 0.537612 1.075224
v 0.588924 -0.000000 1.177849
v 0.000000 0.588924 1.177849
v 0.000000 -0.000000 1.316875
v 0.537612 -0.537612 1.075224
v 0.000000 -0.588924 1.177849
v 0.000000 -0.931171 0.931171
v -0.588924 -1.177849 -0.000000
v -0.537612 -1.075224 0.537612
v 0.000000 -1.316875 -0.000000
v 0.000000 -1.177849 0.588924
v -0.537612 -1.075224 -0.537612
v 0.000000 -1.177849 -0.588924
v 0.588924 1.177849 0.000000
v 0.537612 1.075224 0.537612
v 0.000000 1.316875 0.000000
v 0.000000 1.177849 0.588924
v 0.537612 1.075224 -0.537612
v 0.000000 1.177849 -0.588924
v 0.000000 0.931171 -0.931171
v 0.438958 0.877917 0.877917
v 0.000000 0.931171 0.931171
vt 0.562500 0.187500
vt 0.625000 0.187500
vt 0.625000 0.250000
vt 0.562500 0.250000
vt 0.562500 0.437500
vt 0.625000 0.437500
vt 0.625000 0.500000
vt 0.562500 0.500000
vt 0.562500 0.687500
vt 0.625000 0.687500
vt 0.625000 0.750000
vt 0.562500 0.750000
vt 0.562500 0.937500
vt 0.625000 0.937500
vt 0.625000 1.000000
vt 0.562500 1.000000
vt 0.312500 0.687500
vt 0.375000 0.687500
vt 0.375000 0.750000
vt 0.312500 0.750000
vt 0.812500 0.687500
vt 0.875000 0.687500
vt 0.875000 0.750000
vt 0.812500 0.750000
vt 0.812500 0.500000
vt 0.875000 0.500000
vt 0.875000 0.562500
vt 0.812500 0.562500
vt 0.875000 0.625000
vt 0.812500 0.625000
vt 0.312500 0.500000
vt 0.375000 0.500000
vt 0.375000 0.562500
vt 0.312500 0.562500
vt 0.375000 0.625000
vt 0.312500 0.625000
vt 0.625000 0.562500
vt 0.562500 0.562500
vt 0.625000 0.625000
vt 0.562500 0.625000
vt 0.562500 0.000000
vt 0.625000 0.000000
vt 0.625000 0.062500
vt 0.562500 0.062500
vt 0.625000 0.125000
vt 0.562500 0.125000
vt 0.375000 0.125000
vt 0.437500 0.125000
vt 0.437500 0.187500
vt 0.375000 0.187500
vt 0.500000 0.125000
vt 0.500000 0.187500
vt 0.375000 0.062500
vt 0.437500 0.062500
vt 0.500000 0.062500
vt 0.375000 0.000000
vt 0.437500 0.000000
vt 0.500000 0.000000
vt 0.437500 0.625000
vt 0.437500 0.687500
vt 0.500000 0.625000
vt 0.500000 0.687500
vt 0.437500 0.562500
vt 0.500000 0.562500
vt 0.437500 0.500000
vt 0.500000 0.500000
vt 0.375000 0.937500
vt 0.437500 0.937500
vt 0.437500 1.000000
vt 0.375000 1.000000
vt 0.500000 0.937500
vt 0.500000 1.000000
vt 0.437500 0.750000
vt 0.500000 0.750000
vt 0.375000 0.437500
vt 0.437500 0.437500
vt 0.500000 0.437500
vt 0.437500 0.250000
vt 0.375000 0.250000
vt 0.500000 0.250000
vt 0.562500 0.312500
vt 0.500000 0.312500
vt 0.562500 0.375000
vt 0.500000 0.375000
vt 0.437500 0.312500
vt 0.437500 0.375000
vt 0.375000 0.312500
vt 0.375000 0.375000
vt 0.562500 0.812500
vt 0.500000 0.812500
vt 0.562500 0.875000
vt 0.500000 0.875000
vt 0.437500 0.812500
vt 0.437500 0.875000
vt 0.375000 0.812500
vt 0.375000 0.875000
vt 0.125000 0.625000
vt 0.187500 0.625000
vt 0.187500 0.687500
vt 0.125000 0.687500
vt 0.250000 0.625000
vt 0.250000 0.687500
vt 0.125000 0.562500
vt 0.187500 0.562500
vt 0.250000 0.562500
vt 0.125000 0.500000
vt 0.187500 0.500000
vt 0.250000 0.500000
vt 0.687500 0.625000
vt 0.687500 0.687500
vt 0.750000 0.625000
vt 0.750000 0.687500
vt 0.687500 0.562500
vt 0.750000 0.562500
vt 0.687500 0.500000
vt 0.750000 0.500000
vt 0.687500 0.750000
vt 0.750000 0.750000
vt 0.187500 0.750000
vt 0.125000 0.750000
vt 0.250000 0.750000
vt 0.625000 0.812500
vt 0.625000 0.875000
vt 0.625000 0.312500
vt 0.625000 0.375000
vn -0.8472 0.3756 -0.3756
vn -0.6695 0.6695 -0.3219
vn -0.5774 0.5774 -0.5774
vn -0.6695 0.3219 -0.6695
vn 0.3756 0.3756 -0.8472
vn 0.3219 0.6695 -0.6695
vn 0.5774 0.5774 -0.5774
vn 0.6695 0.3219 -0.6695
vn 0.8472 0.3756 0.3756
vn 0.6695 0.6695 0.3219
vn 0.5774 0.5774 0.5774
vn 0.6695 0.3219 0.6695
vn -0.3756 0.3756 0.8472
vn -0.3219 0.6695 0.6695
vn -0.5774 0.5774 0.5774
vn -0.6695 0.3219 0.6695
vn 0.3756 -0.8472 0.3756
vn 0.6695 -0.6695 0.3219
vn 0.5774 -0.5774 0.5774
vn 0.3219 -0.6695 0.6695
vn -0.3756 0.8472 0.3756
vn -0.6695 0.6695 0.3219
vn -0.3219 0.6695 -0.6695
vn -0.3756 0.8472 -0.3756
vn -0.7071 0.7071 0.0000
vn -0.4004 0.9163 0.0000
vn 0.3219 -0.6695 -0.6695
vn 0.5774 -0.5774 -0.5774
vn 0.6695 -0.6695 -0.3219
vn 0.3756 -0.8472 -0.3756
vn 0.7071 -0.7071 -0.0000
vn 0.4004 -0.9163 -0.0000
vn 0.6695 0.6695 -0.3219
vn 0.8472 0.3756 -0.3756
vn 0.7071 0.7071 0.0000
vn 0.9163 0.4004 0.0000
vn -0.8472 0.3756 0.3756
vn -0.9163 0.4004 0.0000
vn -0.7071 -0.7071 -0.0000
vn -0.9163 -0.4004 -0.0000
vn -0.8472 -0.3756 -0.3756
vn -0.6695 -0.6695 -0.3219
vn -1.0000 -0.0000 0.0000
vn -0.9163 0.0000 -0.4004
vn -0.6695 -0.6695 0.3219
vn -0.8472 -0.3756 0.3756
vn -0.9163 -0.0000 0.4004
vn -0.5774 -0.5774 0.5774
vn -0.6695 -0.3219 0.6695
vn -0.7071 -0.0000 0.7071
vn 0.9163 -0.4004 -0.0000
vn 0.8472 -0.3756 0.3756
vn 1.0000 0.0000 0.0000
vn 0.9163 -0.0000 0.4004
vn 0.8472 -0.3756 -0.3756
vn 0.9163 0.0000 -0.4004
vn 0.6695 -0.3219 -0.6695
vn 0.7071 0.0000 -0.7071
vn -0.3219 -0.6695 0.6695
vn -0.3756 -0.3756 0.8472
vn -0.4004 -0.0000 0.9163
vn 0.6695 -0.3219 0.6695
vn 0.7071 -0.0000 0.7071
vn 0.3756 -0.3756 -0.8472
vn 0.4004 0.0000 -0.9163
vn -0.6695 -0.3219 -0.6695
vn -0.5774 -0.5774 -0.5774
vn -0.7071 0.0000 -0.7071
vn -0.3756 0.3756 -0.8472
vn -0.4004 0.0000 -0.9163
vn -0.0000 0.4004 -0.9163
vn 0.0000 0.0000 -1.0000
vn -0.3756 -0.3756 -0.8472
vn 0.0000 -0.4004 -0.9163
vn -0.3219 -0.6695 -0.6695
vn -0.0000 -0.7071 -0.7071
vn 0.3756 0.3756 0.8472
vn 0.4004 -0.0000 0.9163
vn 0.0000 0.4004 0.9163
vn 0.0000 -0.0000 1.0000
vn 0.3756 -0.3756 0.8472
vn -0.0000 -0.4004 0.9163
vn -0.0000 -0.7071 0.7071
vn -0.4004 -0.9163 -0.0000
vn -0.3756 -0.8472 0.3756
vn 0.0000 -1.0000 -0.0000
vn 0.0000 -0.9163 0.4004
vn -0.3756 -0.8472 -0.3756
vn -0.0000 -0.9163 -0.4004
vn 0.4004 0.9163 0.0000
vn 0.3756 0.8472 0.3756
vn 0.0000 1.0000 0.0000
vn 0.0000 0.9163 0.4004
vn 0.3756 0.8472 -0.3756
vn 0.0000 0.9163 -0.4004
vn -0.0000 0.7071 -0.7071
vn 0.3219 0.6695 0.6695
vn 0.0000 0.7071 0.7071
s 1
f 1/1/1 2/2/2 3/3/3 4/4/4
f 5/5/5 6/6/6 7/7/7 8/8/8
f 9/9/9 10/10/10 11/11/11 12/12/12
f 13/13/13 14/14/14 15/15/15 16/16/16
f 17/17/17 18/18/18 19/19/19 20/20/20
f 21/21/21 22/22/22 15/23/15 14/24/14
f 23/25/23 3/26/3 2/27/2 24/28/24
f 24/28/24 2/27/2 25/29/25 26/30/26
f 26/30/26 25/29/25 22/22/22 21/21/21
f 27/31/27 28/32/28 29/33/29 30/34/30
f 30/34/30 29/33/29 31/35/31 32/36/32
f 32/36/32 31/35/31 18/18/18 17/17/17
f 8/8/8 7/7/7 33/37/33 34/38/34
f 34/38/34 33/37/33 35/39/35 36/40/36
f 36/40/36 35/39/35 10/10/10 9/9/9
f 16/41/16 15/42/15 22/43/22 37/44/37
f 37/44/37 22/43/22 25/45/25 38/46/38
f 38/46/38 25/45/25 2/2/2 1/1/1
f 39/47/39 40/48/40 41/49/41 42/50/42
f 40/48/40 43/51/43 44/52/44 41/49/41
f 43/51/43 38/46/38 1/1/1 44/52/44
f 45/53/45 46/54/46 40/48/40 39/47/39
f 46/54/46 47/55/47 43/51/43 40/48/40
f 47/55/47 37/44/37 38/46/38 43/51/43
f 48/56/48 49/57/49 46/54/46 45/53/45
f 49/57/49 50/58/50 47/55/47 46/54/46
f 50/58/50 16/41/16 37/44/37 47/55/47
f 31/35/31 51/59/51 52/60/52 18/18/18
f 51/59/51 53/61/53 54/62/54 52/60/52
f 53/61/53 36/40/36 9/9/9 54/62/54
f 29/33/29 55/63/55 51/59/51 31/35/31
f 55/63/55 56/64/56 53/61/53 51/59/51
f 56/64/56 34/38/34 36/40/36 53/61/53
f 28/32/28 57/65/57 55/63/55 29/33/29
f 57/65/57 58/66/58 56/64/56 55/63/55
f 58/66/58 8/8/8 34/38/34 56/64/56
f 59/67/59 60/68/60 49/69/49 48/70/48
f 60/68/60 61/71/61 50/72/50 49/69/49
f 61/71/61 13/13/13 16/16/16 50/72/50
f 18/18/18 52/60/52 62/73/62 19/19/19
f 52/60/52 54/62/54 63/74/63 62/73/62
f 54/62/54 9/9/9 12/12/12 63/74/63
f 27/75/27 64/76/64 57/65/57 28/32/28
f 64/76/64 65/77/65 58/66/58 57/65/57
f 65/77/65 5/5/5 8/8/8 58/66/58
f 42/50/42 41/49/41 66/78/66 67/79/67
f 41/49/41 44/52/44 68/80/68 66/78/66
f 44/52/44 1/1/1 4/4/4 68/80/68
f 68/80/68 4/4/4 69/81/69 70/82/70
f 70/82/70 69/81/69 71/83/71 72/84/72
f 72/84/72 71/83/71 5/5/5 65/77/65
f 66/78/66 68/80/68 70/82/70 73/85/73
f 73/85/73 70/82/70 72/84/72 74/86/74
f 74/86/74 72/84/72 65/77/65 64/76/64
f 67/79/67 66/78/66 73/85/73 75/87/75
f 75/87/75 73/85/73 74/86/74 76/88/76
f 76/88/76 74/86/74 64/76/64 27/75/27
f 63/74/63 12/12/12 77/89/77 78/90/78
f 78/90/78 77/89/77 79/91/79 80/92/80
f 80/92/80 79/91/79 13/13/13 61/71/61
f 62/73/62 63/74/63 78/90/78 81/93/81
f 81/93/81 78/90/78 80/92/80 82/94/82
f 82/94/82 80/92/80 61/71/61 60/68/60
f 19/19/19 62/73/62 81/93/81 20/95/20
f 20/95/20 81/93/81 82/94/82 83/96/83
f 83/96/83 82/94/82 60/68/60 59/67/59
f 39/97/39 84/98/84 85/99/85 45/100/45
f 84/98/84 86/101/86 87/102/87 85/99/85
f 86/101/86 32/36/32 17/17/17 87/102/87
f 42/103/42 88/104/88 84/98/84 39/97/39
f 88/104/88 89/105/89 86/101/86 84/98/84
f 89/105/89 30/34/30 32/36/32 86/101/86
f 67/106/67 75/107/75 88/104/88 42/103/42
f 75/107/75 76/108/76 89/105/89 88/104/88
f 76/108/76 27/31/27 30/34/30 89/105/89
f 35/39/35 90/109/90 91/110/91 10/10/10
f 90/109/90 92/111/92 93/112/93 91/110/91
f 92/111/92 26/30/26 21/21/21 93/112/93
f 33/37/33 94/113/94 90/109/90 35/39/35
f 94/113/94 95/114/95 92/111/92 90/109/90
f 95/114/95 24/28/24 26/30/26 92/111/92
f 7/7/7 6/115/6 94/113/94 33/37/33
f 6/115/6 96/116/96 95/114/95 94/113/94
f 96/116/96 23/25/23 24/28/24 95/114/95
f 10/10/10 91/110/91 97/117/97 11/11/11
f 91/110/91 93/112/93 98/118/98 97/117/97
f 93/112/93 21/21/21 14/24/14 98/118/98
f 45/100/45 85/99/85 59/119/59 48/120/48
f 85/99/85 87/102/87 83/121/83 59/119/59
f 87/102/87 17/17/17 20/20/20 83/121/83
f 12/12/12 11/11/11 97/122/97 77/89/77
f 77/89/77 97/122/97 98/123/98 79/91/79
f 79/91/79 98/123/98 14/14/14 13/13/13
f 4/4/4 3/3/3 23/124/23 69/81/69
f 69/81/69 23/124/23 96/125/96 71/83/71
f 71/83/71 96/125/96 6/6/6 5/5/5
